<svg xmlns="http://www.w3.org/2000/svg" xmlns:xlink="http://www.w3.org/1999/xlink" width="248" height="156" version="1.1" viewBox="0 0 248 156"><g id="group"><path id="Путь" fill="#288eea" fill-opacity="1" stroke="#000" stroke-linejoin="round" stroke-opacity="1" stroke-width="8" d="M243.749 4 L4 4 4.352 152 244 152 Z"/><path id="Путь-1" fill="#fff" fill-opacity="1" stroke="#000" stroke-linejoin="round" stroke-opacity="1" stroke-width="8" d="M64 4 L104 4 104 92 64 92 Z"/><path id="Путь-2" fill="#fff" fill-opacity="1" stroke="#000" stroke-linejoin="round" stroke-opacity="1" stroke-width="8" d="M164 28 L164 64 8 64 8 28 Z"/><path id="Путь-3" fill="#ee5281" fill-opacity="1" stroke="#000" stroke-linejoin="round" stroke-opacity="1" stroke-width="8" d="M19.796 92 L164 10.803 164 4 147.373 4 8 82.99 8.021 92 Z"/><path id="Путь-4" fill="#ee5281" fill-opacity="1" stroke="#000" stroke-linejoin="round" stroke-opacity="1" stroke-width="8" d="M164 92 L164 85.403 19.43 4 8.022 4 8 13.216 147.01 92 Z"/><path id="Путь-5" fill="#ee5281" fill-opacity="1" stroke="#000" stroke-linejoin="round" stroke-opacity="1" stroke-width="8" d="M8 38.588 L164 38.588 164 53.488 8 53.488 Z"/><path id="Путь-6" fill="#ee5281" fill-opacity="1" stroke="#000" stroke-linejoin="round" stroke-opacity="1" stroke-width="8" d="M75.05 4.206 L93.5 4.206 93.5 92 75.05 92 Z"/><path id="Путь-7" fill="none" stroke="#fff" stroke-linejoin="round" stroke-opacity="1" stroke-width="8" d="M68 108 L68 132"/><path id="Путь-8" fill="none" stroke="#fff" stroke-linejoin="round" stroke-opacity="1" stroke-width="8" d="M56 120 L80 120"/><path id="Путь-9" fill="#fff" fill-opacity="1" stroke="none" d="M192 24 L200 24 200 32 192 32 Z"/><path id="Путь-10" fill="#fff" fill-opacity="1" stroke="none" d="M220 56 L228 56 228 64 220 64 Z"/><path id="Путь-11" fill="#fff" fill-opacity="1" stroke="none" d="M212 80 L220 80 220 88 212 88 Z"/><path id="Путь-12" fill="#fff" fill-opacity="1" stroke="none" d="M192 108 L204 108 204 120 192 120 Z"/><path id="Путь-13" fill="#fff" fill-opacity="1" stroke="none" d="M184 64 L192 64 192 72 184 72 Z"/></g></svg>