<svg xmlns="http://www.w3.org/2000/svg" xmlns:xlink="http://www.w3.org/1999/xlink" width="248" height="156" version="1.1" viewBox="0 0 248 156"><g id="group"><path id="Путь" fill="#288eea" fill-opacity="1" stroke="#000" stroke-linejoin="round" stroke-opacity="1" stroke-width="8" d="M243.842 4 L4.076 4 4.19 52 243.924 52 Z"/><path id="Путь-1" fill="#288eea" fill-opacity="1" stroke="none" d="M0.076 52 L0.076 104 0.974 104 0.849 52 Z"/><path id="Путь-2" fill="#ee5281" fill-opacity="1" stroke="#000" stroke-linejoin="round" stroke-opacity="1" stroke-width="8" d="M4.076 52 L4.2 105 243.911 105 243.822 52 Z"/><path id="Путь-3" fill="#83d816" fill-opacity="1" stroke="#000" stroke-linejoin="round" stroke-opacity="1" stroke-width="8" d="M4.19 152 L243.889 152 243.808 104 4.076 104 Z"/><path id="Путь-4" fill="#fff" fill-opacity="1" stroke="#000" stroke-linejoin="round" stroke-opacity="1" stroke-width="8" d="M117.851 109.784 C100.297 109.784 86.067 95.554 86.067 78 86.067 60.446 100.297 46.216 117.851 46.216 124.527 46.216 132.052 48.279 138.817 51.796 131.793 44.252 121.78 39.528 110.659 39.528 89.411 39.528 72.186 56.753 72.186 78.001 72.186 99.249 89.411 116.474 110.659 116.474 121.78 116.474 131.793 111.75 138.817 104.206 132.052 107.721 124.527 109.784 117.851 109.784 Z"/><path id="Путь-5" fill="#fff" fill-opacity="1" stroke="#000" stroke-linejoin="round" stroke-opacity="1" stroke-width="8" d="M149.395 72.799 L135.758 73.342 146.472 81.796 142.775 94.933 154.126 87.355 165.477 94.931 161.778 81.794 172.491 73.34 158.854 72.798 154.124 59.997 Z"/></g></svg>