<svg xmlns="http://www.w3.org/2000/svg" xmlns:xlink="http://www.w3.org/1999/xlink" width="244" height="156" version="1.1" viewBox="0 0 244 156"><g id="group"><path id="Путь" fill="#ee5281" fill-opacity="1" stroke="#000" stroke-linejoin="round" stroke-opacity="1" stroke-width="8" d="M239.88 4.076 L239.88 4 4 4 120 80 Z"/><path id="Путь-1" fill="#83d816" fill-opacity="1" stroke="#000" stroke-linejoin="round" stroke-opacity="1" stroke-width="8" d="M4 4 L4.169 76 4.021 76 4.199 152 10.105 152 120 80 Z"/><path id="Путь-2" fill="#ee5281" fill-opacity="1" stroke="#000" stroke-linejoin="round" stroke-opacity="1" stroke-width="8" d="M10.105 152 L233.685 152 120 80 Z"/><path id="Путь-3" fill="#83d816" fill-opacity="1" stroke="#000" stroke-linejoin="round" stroke-opacity="1" stroke-width="8" d="M239.88 4.076 L120 80 233.685 152 239.979 152 239.853 76 240 76 Z"/><path id="Путь-4" fill="#fff" fill-opacity="1" stroke="#000" stroke-linejoin="round" stroke-opacity="1" stroke-width="8" d="M120 80 L110.78 73.959 4.178 143.168 4.199 152 10.105 152 27.303 152 129.214 85.836 Z"/><path id="Путь-5" fill="#fff" fill-opacity="1" stroke="#000" stroke-linejoin="round" stroke-opacity="1" stroke-width="8" d="M120 80 L108.165 87.754 207.121 152 233.685 152 239.979 152 239.975 149.485 126.555 75.849 Z"/><path id="Путь-6" fill="#fff" fill-opacity="1" stroke="#000" stroke-linejoin="round" stroke-opacity="1" stroke-width="8" d="M120 76 L110.78 82.041 4.178 12.832 4.199 4 10.105 4 27.303 4 129.214 70.164 Z"/><path id="Путь-7" fill="#fff" fill-opacity="1" stroke="#000" stroke-linejoin="round" stroke-opacity="1" stroke-width="8" d="M120 76 L108.165 68.246 207.121 4 233.685 4 239.979 4 239.975 6.515 126.555 80.151 Z"/><path id="Путь-8" fill="#fff" fill-opacity="1" stroke="#000" stroke-linejoin="round" stroke-opacity="1" stroke-width="8" d="M159.468 78 C159.468 100.902 140.902 119.468 118 119.468 95.098 119.468 76.532 100.902 76.532 78 76.532 55.098 95.098 36.532 118 36.532 140.902 36.532 159.468 55.098 159.468 78 Z"/><path id="Путь-9" fill="#ee5281" fill-opacity="1" stroke="none" d="M112 60 L124 60 124 72 112 72 Z"/><path id="Путь-10" fill="#ee5281" fill-opacity="1" stroke="none" d="M128 80 L140 80 140 92 128 92 Z"/><path id="Путь-11" fill="#ee5281" fill-opacity="1" stroke="none" d="M96 80 L108 80 108 92 96 92 Z"/></g></svg>