<svg xmlns="http://www.w3.org/2000/svg" xmlns:xlink="http://www.w3.org/1999/xlink" width="284" height="156" version="1.1" viewBox="0 0 284 156"><g id="group"><path id="Путь" fill="#ee5281" fill-opacity="1" stroke="#000" stroke-linejoin="round" stroke-opacity="1" stroke-width="9.169" d="M279.273 76.016 L279.133 4.588 105.355 4.588 5.32 4.588 4.581 4.588 4.581 151.412 5.722 151.412 105.355 151.412 279.419 151.412 Z"/><path id="Путь-1" fill="#fff" fill-opacity="1" stroke="#000" stroke-linejoin="round" stroke-opacity="1" stroke-width="9.169" d="M211.882 82.588 L211.882 113.362 211.882 114.727 231.993 128.324 250.763 114.727 250.763 113.362 250.763 82.588 Z"/><path id="Путь-2" fill="#288eea" fill-opacity="1" stroke="#000" stroke-linejoin="round" stroke-opacity="1" stroke-width="9.169" d="M187.615 4.588 L4.581 4.588 4.85 105.529 187.806 105.529 Z"/><path id="Путь-3" fill="#fff" fill-opacity="1" stroke="#000" stroke-linejoin="round" stroke-opacity="1" stroke-width="9.169" d="M73.29 4.588 L119.097 4.588 119.097 105.529 73.29 105.529 Z"/><path id="Путь-4" fill="#fff" fill-opacity="1" stroke="#000" stroke-linejoin="round" stroke-opacity="1" stroke-width="9.169" d="M187.806 32.118 L187.806 73.412 9.161 73.412 9.161 32.118 Z"/><path id="Путь-5" fill="#ee5281" fill-opacity="1" stroke="#000" stroke-linejoin="round" stroke-opacity="1" stroke-width="9.169" d="M22.67 105.529 L187.806 12.392 187.806 4.588 168.766 4.588 9.161 95.194 9.185 105.529 Z"/><path id="Путь-6" fill="#ee5281" fill-opacity="1" stroke="#000" stroke-linejoin="round" stroke-opacity="1" stroke-width="9.169" d="M187.806 105.529 L187.806 97.962 22.25 4.588 9.186 4.588 9.161 15.16 168.35 105.529 Z"/><path id="Путь-7" fill="#ee5281" fill-opacity="1" stroke="#000" stroke-linejoin="round" stroke-opacity="1" stroke-width="9.169" d="M9.161 44.263 L187.806 44.263 187.806 61.354 9.161 61.354 Z"/><path id="Путь-8" fill="#ee5281" fill-opacity="1" stroke="#000" stroke-linejoin="round" stroke-opacity="1" stroke-width="9.169" d="M85.944 4.825 L107.073 4.825 107.073 105.529 85.944 105.529 Z"/></g></svg>