<svg xmlns="http://www.w3.org/2000/svg" xmlns:xlink="http://www.w3.org/1999/xlink" width="248" height="156" version="1.1" viewBox="0 0 248 156"><g id="group"><path id="Путь" fill="#288eea" fill-opacity="1" stroke="#000" stroke-linejoin="round" stroke-opacity="1" stroke-width="8" d="M243.75 4 L92 4 4.646 4 4 4 4 40 243.811 40 Z"/><path id="Путь-1" fill="#feda38" fill-opacity="1" stroke="#000" stroke-linejoin="round" stroke-opacity="1" stroke-width="8" d="M4 152 L4.997 152 92 152 244 152 243.946 116 4 116 Z"/><path id="Путь-2" fill="#fff" fill-opacity="1" stroke="#000" stroke-linejoin="round" stroke-opacity="1" stroke-width="8" d="M243.872 76 L243.811 40 4 40 4 80 243.878 80 Z"/><path id="Путь-3" fill="#83d816" fill-opacity="1" stroke="#000" stroke-linejoin="round" stroke-opacity="1" stroke-width="8" d="M4 80 L4 116 243.946 116 243.878 80 Z"/><path id="Путь-4" fill="#ee5281" fill-opacity="1" stroke="#000" stroke-linejoin="round" stroke-opacity="1" stroke-width="8" d="M108 4 L140 4 140 152 108 152 Z"/><path id="Путь-5" fill="#feda38" fill-opacity="1" stroke="none" d="M24 16 L36 16 36 28 24 28 Z"/></g></svg>