<svg xmlns="http://www.w3.org/2000/svg" xmlns:xlink="http://www.w3.org/1999/xlink" width="248" height="156" version="1.1" viewBox="0 0 248 156"><g id="group"><path id="Путь" fill="#288eea" fill-opacity="1" stroke="#000" stroke-linejoin="round" stroke-opacity="1" stroke-width="8" d="M243.75 4 L92 4 4.646 4 4 4 4 32 243.811 32 Z"/><path id="Путь-1" fill="#fff" fill-opacity="1" stroke="#000" stroke-linejoin="round" stroke-opacity="1" stroke-width="8" d="M243.75 32 L92 32 4.646 32 4 32 4 64 243.811 64 Z"/><path id="Путь-2" fill="#fff" fill-opacity="1" stroke="#000" stroke-linejoin="round" stroke-opacity="1" stroke-width="8" d="M243.75 92 L92 92 4.646 92 4 92 4 124 243.811 124 Z"/><path id="Путь-3" fill="#288eea" fill-opacity="1" stroke="#000" stroke-linejoin="round" stroke-opacity="1" stroke-width="8" d="M243.75 64 L92 64 4.646 64 4 64 4 92 243.811 92 Z"/><path id="Путь-4" fill="#288eea" fill-opacity="1" stroke="#000" stroke-linejoin="round" stroke-opacity="1" stroke-width="8" d="M4 152 L4.997 152 92 152 244 152 243.946 124 4 124 Z"/><path id="Путь-5" fill="#ee5281" fill-opacity="1" stroke="#000" stroke-linejoin="round" stroke-opacity="1" stroke-width="8" d="M4 4 L132 76 4 152 Z"/><path id="Путь-6" fill="#fff" fill-opacity="1" stroke="#000" stroke-linejoin="round" stroke-opacity="1" stroke-width="8" d="M51.994 71.6 L69.136 72.282 55.667 82.909 60.316 99.423 46.047 89.898 31.777 99.421 36.427 82.908 22.96 72.279 40.103 71.599 46.049 55.506 Z"/></g></svg>