<svg xmlns="http://www.w3.org/2000/svg" xmlns:xlink="http://www.w3.org/1999/xlink" width="244" height="156" version="1.1" viewBox="0 0 244 156"><g id="group"><path id="Путь" fill="#ee5281" fill-opacity="1" stroke="#000" stroke-linejoin="round" stroke-opacity="1" stroke-width="8" d="M240 76 L239.88 4 4 4 4.169 76 4.021 76 4.199 152 239.979 152 239.853 76 Z"/><path id="Путь-1" fill="#feda38" fill-opacity="1" stroke="#000" stroke-linejoin="round" stroke-opacity="1" stroke-width="8" d="M215.109 32.408 L215.108 32 28.797 32 28.798 32.382 120 76 Z"/><path id="Путь-2" fill="#83d816" fill-opacity="1" stroke="#000" stroke-linejoin="round" stroke-opacity="1" stroke-width="8" d="M28 32.382 L28.133 74.811 28.015 74.811 28.156 119.544 120 76 Z"/><path id="Путь-3" fill="#feda38" fill-opacity="1" stroke="#000" stroke-linejoin="round" stroke-opacity="1" stroke-width="8" d="M28.953 119.544 L28.954 120 215.187 120 215.186 119.627 120 76 Z"/><path id="Путь-4" fill="#83d816" fill-opacity="1" stroke="#000" stroke-linejoin="round" stroke-opacity="1" stroke-width="8" d="M216 74.811 L215.905 32.408 120 76 215.982 119.627 215.882 74.811 Z"/><path id="Путь-5" fill="#ee5281" fill-opacity="1" stroke="#000" stroke-linejoin="round" stroke-opacity="1" stroke-width="8" d="M136 74.077 C136 83.976 127.976 92 118.077 92 108.178 92 100.154 83.976 100.154 74.077 100.154 64.178 108.178 56.154 118.077 56.154 127.976 56.154 136 64.178 136 74.077 Z"/></g></svg>