<svg xmlns="http://www.w3.org/2000/svg" xmlns:xlink="http://www.w3.org/1999/xlink" width="248" height="156" version="1.1" viewBox="0 0 248 156"><g id="group"><path id="Путь" fill="#fff" fill-opacity="1" stroke="#000" stroke-linejoin="round" stroke-opacity="1" stroke-width="8" d="M243.896 92 L140 92 140 152 244 152 Z"/><path id="Путь-1" fill="#fff" fill-opacity="1" stroke="#000" stroke-linejoin="round" stroke-opacity="1" stroke-width="8" d="M4 92 L4 152 4.96 152 88.741 152 108 152 108 92 Z"/><path id="Путь-2" fill="#fff" fill-opacity="1" stroke="#000" stroke-linejoin="round" stroke-opacity="1" stroke-width="8" d="M88.741 4 L4.622 4 4 4 4 60 108 60 108 4 Z"/><path id="Путь-3" fill="#fff" fill-opacity="1" stroke="#000" stroke-linejoin="round" stroke-opacity="1" stroke-width="8" d="M243.851 60 L243.754 4 140 4 140 60 Z"/><path id="Путь-4" fill="#ee5281" fill-opacity="1" stroke="#000" stroke-linejoin="round" stroke-opacity="1" stroke-width="8" d="M244 60 L140 60 140 4 108 4 108 60 4 60 4 92 108 92 108 152 140 152 140 92 244 92 Z"/><path id="Путь-5" fill="none" stroke="#ee5281" stroke-linejoin="round" stroke-opacity="1" stroke-width="16" d="M192 116 L192 132"/><path id="Путь-6" fill="none" stroke="#ee5281" stroke-linejoin="round" stroke-opacity="1" stroke-width="16" d="M184 124 L200 124"/><path id="Путь-7" fill="none" stroke="#ee5281" stroke-linejoin="round" stroke-opacity="1" stroke-width="16" d="M192 24 L192 40"/><path id="Путь-8" fill="none" stroke="#ee5281" stroke-linejoin="round" stroke-opacity="1" stroke-width="16" d="M184 32 L200 32"/><path id="Путь-9" fill="none" stroke="#ee5281" stroke-linejoin="round" stroke-opacity="1" stroke-width="16" d="M56 116 L56 132"/><path id="Путь-10" fill="none" stroke="#ee5281" stroke-linejoin="round" stroke-opacity="1" stroke-width="16" d="M48 124 L64 124"/><path id="Путь-11" fill="none" stroke="#ee5281" stroke-linejoin="round" stroke-opacity="1" stroke-width="16" d="M56 24 L56 40"/><path id="Путь-12" fill="none" stroke="#ee5281" stroke-linejoin="round" stroke-opacity="1" stroke-width="16" d="M48 32 L64 32"/></g></svg>