<svg xmlns="http://www.w3.org/2000/svg" xmlns:xlink="http://www.w3.org/1999/xlink" width="248" height="156" version="1.1" viewBox="0 0 248 156"><g id="group"><path id="Путь" fill="#fff" fill-opacity="1" stroke="#000" stroke-linejoin="round" stroke-opacity="1" stroke-width="8" d="M243.749 4 L3.999 4 3.999 152 243.999 152 Z"/><path id="Путь-1" fill="#288eea" fill-opacity="1" stroke="#000" stroke-linejoin="round" stroke-opacity="1" stroke-width="8" d="M244 4.001 L244 24 84 24 84 4.001 Z"/><path id="Путь-2" fill="#288eea" fill-opacity="1" stroke="#000" stroke-linejoin="round" stroke-opacity="1" stroke-width="8" d="M244 44 L244 63.999 84 63.999 84 44 Z"/><path id="Путь-3" fill="#288eea" fill-opacity="1" stroke="#000" stroke-linejoin="round" stroke-opacity="1" stroke-width="8" d="M244 88 L244 107.999 4 107.999 4 88 Z"/><path id="Путь-4" fill="#288eea" fill-opacity="1" stroke="#000" stroke-linejoin="round" stroke-opacity="1" stroke-width="8" d="M244 132 L244 151.999 4 151.999 4 132 Z"/><path id="Путь-5" fill="#288eea" fill-opacity="1" stroke="#000" stroke-linejoin="round" stroke-opacity="1" stroke-width="8" d="M83.999 4.001 L83.999 88.001 3.999 88.001 3.999 4.001 Z"/><path id="Путь-6" fill="#fff" fill-opacity="1" stroke="#000" stroke-linejoin="round" stroke-opacity="1" stroke-width="8" d="M83.999 36 L51.999 36 51.999 4 35.999 4 35.999 36 3.999 36 3.999 52 35.999 52 35.999 88 51.999 88 51.999 52 83.999 52 Z"/></g></svg>