<svg xmlns="http://www.w3.org/2000/svg" xmlns:xlink="http://www.w3.org/1999/xlink" width="248" height="156" version="1.1" viewBox="0 0 248 156"><g id="group"><path id="Путь" fill="#ee5281" fill-opacity="1" stroke="#000" stroke-linejoin="round" stroke-opacity="1" stroke-width="8" d="M243.842 4 L4.076 4 4.19 52 243.924 52 Z"/><path id="Путь-1" fill="#fff" fill-opacity="1" stroke="#000" stroke-linejoin="round" stroke-opacity="1" stroke-width="8" d="M4.089 52 L4.213 105 243.911 105 243.822 52 Z"/><path id="Путь-2" fill="#288eea" fill-opacity="1" stroke="#000" stroke-linejoin="round" stroke-opacity="1" stroke-width="8" d="M4.225 152 L243.889 152 243.808 104 4.111 104 Z"/><path id="Путь-3" fill="#fff" fill-opacity="1" stroke="#000" stroke-linejoin="round" stroke-opacity="1" stroke-width="8" d="M132.05 128 L116.102 128 C102.833 128 92.076 117.243 92.076 103.974 L92.076 72 156.076 72 156.076 103.974 C156.076 117.243 145.32 128 132.05 128 Z"/><path id="Путь-4" fill="#26bbec" fill-opacity="1" stroke="#000" stroke-linejoin="round" stroke-opacity="1" stroke-width="8" d="M145.41 27.285 L134.743 47.643 124.076 27.285 113.41 47.643 102.743 27.285 92.076 47.643 92.076 72 156.076 72 156.076 47.643 Z"/><path id="Путь-5" fill="#ee5281" fill-opacity="1" stroke="#000" stroke-linejoin="round" stroke-opacity="1" stroke-width="8" d="M156.076 92 L132.076 92 132.076 72 116.076 72 116.076 92 92.076 92 92.076 108 116.076 108 116.076 128 132.076 128 132.076 108 156.076 108 Z"/></g></svg>