<svg xmlns="http://www.w3.org/2000/svg" xmlns:xlink="http://www.w3.org/1999/xlink" width="248" height="156" version="1.1" viewBox="0 0 248 156"><g id="group"><path id="Путь" fill="#288eea" fill-opacity="1" stroke="#000" stroke-linejoin="round" stroke-opacity="1" stroke-width="8" d="M243.872 76 L243.75 4 92 4 4.646 4 4 4 4 152 4.997 152 92 152 244 152 Z"/><path id="Путь-1" fill="#fff" fill-opacity="1" stroke="#000" stroke-linejoin="round" stroke-opacity="1" stroke-width="8" d="M104 4 L92 4 56 4 56 52 4 52 4 99.661 56 99.661 56 152 92 152 104 152 104 99.661 243.912 99.661 243.872 76 243.831 52 104 52 Z"/><path id="Путь-2" fill="#ee5281" fill-opacity="1" stroke="#000" stroke-linejoin="round" stroke-opacity="1" stroke-width="8" d="M244 68 L88 68 88 4 72 4 72 68 4 68 4 84 72 84 72 152 88 152 88 84 244 84 Z"/></g></svg>