<svg xmlns="http://www.w3.org/2000/svg" xmlns:xlink="http://www.w3.org/1999/xlink" width="248" height="156" version="1.1" viewBox="0 0 248 156"><g id="group"><path id="Путь" fill="#288eea" fill-opacity="1" stroke="#000" stroke-linejoin="round" stroke-opacity="1" stroke-width="8" d="M243.749 4 L4 4 4.352 152 244 152 Z"/><path id="Путь-1" fill="#fff" fill-opacity="1" stroke="#000" stroke-linejoin="round" stroke-opacity="1" stroke-width="8" d="M187.266 91.534 L187.266 106.98 C187.266 106.98 192.415 118.565 204 122.426 204 122.426 215.585 118.564 220.734 108.267 L220.734 91.533 187.266 91.533 Z"/><path id="Путь-2" fill="#ee5281" fill-opacity="1" stroke="#000" stroke-linejoin="round" stroke-opacity="1" stroke-width="8" d="M187.266 75.534 L220.733 75.534 220.733 92.268 187.266 92.268 Z"/><path id="Путь-3" fill="#fff" fill-opacity="1" stroke="#000" stroke-linejoin="round" stroke-opacity="1" stroke-width="8" d="M164 20 L108 20 108 4 60 4 60 20 8 20 8 72 60 72 60 92 108 92 108 72 164 72 Z"/><path id="Путь-4" fill="#ee5281" fill-opacity="1" stroke="#000" stroke-linejoin="round" stroke-opacity="1" stroke-width="8" d="M19.796 92 L164 10.803 164 4 147.373 4 8 82.99 8.021 92 Z"/><path id="Путь-5" fill="#ee5281" fill-opacity="1" stroke="#000" stroke-linejoin="round" stroke-opacity="1" stroke-width="8" d="M164 92 L164 85.403 19.43 4 8.022 4 8 13.216 147.01 92 Z"/><path id="Путь-6" fill="#ee5281" fill-opacity="1" stroke="#000" stroke-linejoin="round" stroke-opacity="1" stroke-width="8" d="M8 40 L164 40 164 52 8 52 Z"/><path id="Путь-7" fill="#ee5281" fill-opacity="1" stroke="#000" stroke-linejoin="round" stroke-opacity="1" stroke-width="8" d="M76 4.206 L92 4.206 92 92 76 92 Z"/></g></svg>