<svg xmlns="http://www.w3.org/2000/svg" xmlns:xlink="http://www.w3.org/1999/xlink" width="248" height="156" version="1.1" viewBox="0 0 248 156"><g id="group"><path id="Путь" fill="#288eea" fill-opacity="1" stroke="none" d="M4.076 52 L4.076 104 4.96 104 4.836 52 Z"/><path id="Путь-1" fill="#ee5281" fill-opacity="1" stroke="#000" stroke-linejoin="round" stroke-opacity="1" stroke-width="8" d="M243.842 4 L4.076 4 4.19 44 243.924 44 Z"/><path id="Путь-2" fill="#ee5281" fill-opacity="1" stroke="#000" stroke-linejoin="round" stroke-opacity="1" stroke-width="8" d="M4.225 152 L243.889 152 243.808 112 4.111 112 Z"/><path id="Путь-3" fill="#288eea" fill-opacity="1" stroke="#000" stroke-linejoin="round" stroke-opacity="1" stroke-width="8" d="M4.089 44 L4.213 112 243.911 112 243.822 44 Z"/><path id="Путь-4" fill="#fff" fill-opacity="1" stroke="#000" stroke-linejoin="round" stroke-opacity="1" stroke-width="8" d="M146.231 78 C146.231 89.131 137.207 98.155 126.076 98.155 114.945 98.155 105.921 89.131 105.921 78 105.921 66.869 114.945 57.845 126.076 57.845 137.207 57.845 146.231 66.869 146.231 78 Z"/></g></svg>