<svg xmlns="http://www.w3.org/2000/svg" xmlns:xlink="http://www.w3.org/1999/xlink" width="248" height="156" version="1.1" viewBox="0 0 248 156"><g id="group"><path id="Путь" fill="#ee5281" fill-opacity="1" stroke="#000" stroke-linejoin="round" stroke-opacity="1" stroke-width="8" d="M244 152 L164.252 152 164 4 243.748 4 Z"/><path id="Путь-1" fill="#288eea" fill-opacity="1" stroke="#000" stroke-linejoin="round" stroke-opacity="1" stroke-width="8" d="M164 152 L84.252 152 84 4 163.748 4 Z"/><path id="Путь-2" fill="#ee5281" fill-opacity="1" stroke="#000" stroke-linejoin="round" stroke-opacity="1" stroke-width="8" d="M84 152 L4.252 152 4 4 83.748 4 Z"/><path id="Путь-3" fill="#feda38" fill-opacity="1" stroke="#000" stroke-linejoin="round" stroke-opacity="1" stroke-width="8" d="M52 64 L68 64 68 120 52 120 Z"/><path id="Путь-4" fill="#feda38" fill-opacity="1" stroke="#000" stroke-linejoin="round" stroke-opacity="1" stroke-width="8" d="M20 64 L36 64 36 120 20 120 Z"/><path id="Путь-5" fill="#feda38" fill-opacity="1" stroke="#000" stroke-linejoin="round" stroke-opacity="1" stroke-width="8" d="M56 36 C56 42.627 50.627 48 44 48 37.373 48 32 42.627 32 36 32 29.373 37.373 24 44 24 50.627 24 56 29.373 56 36 Z"/></g></svg>