<svg xmlns="http://www.w3.org/2000/svg" xmlns:xlink="http://www.w3.org/1999/xlink" width="242" height="156" version="1.1" viewBox="0 0 242 156"><g id="group"><path id="Путь" fill="#83d816" fill-opacity="1" stroke="#000" stroke-linejoin="round" stroke-opacity="1" stroke-width="7.803" d="M237.73 25.116 L49.541 152.1 237.94 152.1 Z"/><path id="Путь-1" fill="#288eea" fill-opacity="1" stroke="#000" stroke-linejoin="round" stroke-opacity="1" stroke-width="7.803" d="M193.542 3.9 L3.903 3.9 4.199 131.344 Z"/><path id="Путь-2" fill="#feda38" fill-opacity="1" stroke="#000" stroke-linejoin="round" stroke-opacity="1" stroke-width="7.803" d="M238.066 33.359 L238.097 3.9 181.215 3.9 3.995 123.483 3.903 152.1 62.092 152.1 Z"/><path id="Путь-3" fill="#ee5281" fill-opacity="1" stroke="#000" stroke-linejoin="round" stroke-opacity="1" stroke-width="7.803" d="M4.719 152.1 L32.733 152.1 237.711 13.788 237.695 3.9 210.349 3.9 4.697 142.667 Z"/><path id="Путь-4" fill="#feda38" fill-opacity="1" stroke="#000" stroke-linejoin="round" stroke-opacity="1" stroke-width="7.803" d="M62.882 40.95 C62.882 50.736 54.942 58.67 45.148 58.67 35.353 58.67 27.413 50.736 27.413 40.95 27.413 31.164 35.353 23.23 45.148 23.23 54.942 23.23 62.882 31.164 62.882 40.95 Z"/></g></svg>