<svg xmlns="http://www.w3.org/2000/svg" xmlns:xlink="http://www.w3.org/1999/xlink" width="242" height="156" version="1.1" viewBox="0 0 242 156"><g id="group"><path id="Путь" fill="#83d816" fill-opacity="1" stroke="#000" stroke-linejoin="round" stroke-opacity="1" stroke-width="7.803" d="M237.809 25.116 L237.774 3.9 229.163 3.9 15.921 152.1 49.238 152.1 238.018 152.1 Z"/><path id="Путь-1" fill="#288eea" fill-opacity="1" stroke="#000" stroke-linejoin="round" stroke-opacity="1" stroke-width="7.803" d="M193.531 3.9 L3.982 3.9 4.277 131.344 4.325 152.1 15.921 152.1 229.163 3.9 Z"/><path id="Путь-2" fill="#feda38" fill-opacity="1" stroke="#000" stroke-linejoin="round" stroke-opacity="1" stroke-width="7.803" d="M4.325 152.1 L32.397 152.1 237.789 13.788 237.774 3.9 210.371 3.9 4.303 142.667 Z"/><path id="Путь-3" fill="none" stroke="#fff" stroke-linejoin="round" stroke-opacity="1" stroke-width="7.9" d="M81.731 27.3 L81.731 42.9"/><path id="Путь-4" fill="none" stroke="#fff" stroke-linejoin="round" stroke-opacity="1" stroke-width="7.903" d="M73.909 35.1 L89.553 35.1"/><path id="Путь-5" fill="none" stroke="#fff" stroke-linejoin="round" stroke-opacity="1" stroke-width="7.9" d="M34.797 27.3 L34.797 42.9"/><path id="Путь-6" fill="none" stroke="#fff" stroke-linejoin="round" stroke-opacity="1" stroke-width="7.903" d="M26.975 35.1 L42.619 35.1"/><path id="Путь-7" fill="none" stroke="#fff" stroke-linejoin="round" stroke-opacity="1" stroke-width="7.9" d="M58.263 58.5 L58.263 74.1"/><path id="Путь-8" fill="none" stroke="#fff" stroke-linejoin="round" stroke-opacity="1" stroke-width="7.903" d="M50.441 66.3 L66.086 66.3"/></g></svg>