<svg xmlns="http://www.w3.org/2000/svg" xmlns:xlink="http://www.w3.org/1999/xlink" width="248" height="156" version="1.1" viewBox="0 0 248 156"><g id="group"><path id="Путь" fill="#288eea" fill-opacity="1" stroke="#000" stroke-linejoin="round" stroke-opacity="1" stroke-width="8" d="M4 4 L244 4 244 152 4 152 Z"/><path id="Путь-1" fill="none" stroke="none" d="M2 150 L4.892 149.512 4.891 148.9 Z"/><path id="Путь-2" fill="none" stroke="none" d="M4 152 L4.895 151.162 4.894 150.428 Z"/><path id="Путь-3" fill="#ee5281" fill-opacity="1" stroke="#000" stroke-linejoin="round" stroke-opacity="1" stroke-width="8" d="M243.841 58.032 L243.75 4 187.596 4 164.646 4 162.091 4 8 148 Z"/><path id="Путь-4" fill="#ee5281" fill-opacity="1" stroke="none" d="M6.001 148.479 L5.469 149.415 7.045 149.148 8.966 147.351 Z"/><path id="Путь-5" fill="#fff" fill-opacity="1" stroke="#000" stroke-linejoin="round" stroke-opacity="1" stroke-width="8" d="M7.045 149.148 L243.928 109.193 243.841 58.032 8.966 147.351 Z"/><path id="Путь-6" fill="#feda38" fill-opacity="1" stroke="#000" stroke-linejoin="round" stroke-opacity="1" stroke-width="8" d="M8.966 147.351 L162.091 4 88.091 4 6.001 148.479 Z"/><path id="Путь-7" fill="#ee5281" fill-opacity="1" stroke="none" d="M5.469 149.415 L4.894 150.428 4.895 151.162 7.045 149.148 Z"/><path id="Путь-8" fill="#83d816" fill-opacity="1" stroke="#000" stroke-linejoin="round" stroke-opacity="1" stroke-width="8" d="M7.045 149.148 L4.895 151.162 4.896 152 60.404 152 84 152 164.896 152 188 152 244 152 243.928 109.193 160.844 123.207 Z"/></g></svg>