<svg xmlns="http://www.w3.org/2000/svg" xmlns:xlink="http://www.w3.org/1999/xlink" width="248" height="156" version="1.1" viewBox="0 0 248 156"><g id="group"><path id="Путь" fill="#83d816" fill-opacity="1" stroke="#000" stroke-linejoin="round" stroke-opacity="1" stroke-width="8" d="M243.843 4 L4.739 4 4.853 52 243.924 52 Z"/><path id="Путь-1" fill="#83d816" fill-opacity="1" stroke="#000" stroke-linejoin="round" stroke-opacity="1" stroke-width="8" d="M4.887 152 L243.89 152 243.809 104 4.773 104 Z"/><path id="Путь-2" fill="#feda38" fill-opacity="1" stroke="#000" stroke-linejoin="round" stroke-opacity="1" stroke-width="8" d="M4.752 44 L4.875 112 243.911 112 243.823 44 Z"/><path id="Путь-3" fill="#000" fill-opacity="1" stroke="#000" stroke-linejoin="round" stroke-opacity="1" stroke-width="8" d="M134.295 73.351 L146.32 73.829 136.872 81.284 140.133 92.868 130.124 86.186 120.114 92.867 123.376 81.283 113.929 73.827 125.954 73.35 130.125 62.061 Z"/><path id="Путь-4" fill="#000" fill-opacity="1" stroke="#000" stroke-linejoin="round" stroke-opacity="1" stroke-width="8" d="M198.295 73.351 L210.32 73.829 200.872 81.284 204.133 92.868 194.124 86.186 184.114 92.867 187.376 81.283 177.929 73.827 189.954 73.35 194.125 62.061 Z"/><path id="Путь-5" fill="#ee5281" fill-opacity="1" stroke="#000" stroke-linejoin="round" stroke-opacity="1" stroke-width="8" d="M4.076 4 L60.076 76 4.076 152 Z"/></g></svg>