<svg xmlns="http://www.w3.org/2000/svg" xmlns:xlink="http://www.w3.org/1999/xlink" width="248" height="156" version="1.1" viewBox="0 0 248 156"><g id="group"><path id="Путь" fill="#83d816" fill-opacity="1" stroke="#000" stroke-linejoin="round" stroke-opacity="1" stroke-width="8" d="M243.75 4 L92 4 4.646 4 4 4 4 32 243.811 32 Z"/><path id="Путь-1" fill="#feda38" fill-opacity="1" stroke="#000" stroke-linejoin="round" stroke-opacity="1" stroke-width="8" d="M243.75 32 L92 32 4.646 32 4 32 4 64 243.811 64 Z"/><path id="Путь-2" fill="#feda38" fill-opacity="1" stroke="#000" stroke-linejoin="round" stroke-opacity="1" stroke-width="8" d="M243.75 92 L92 92 4.646 92 4 92 4 124 243.811 124 Z"/><path id="Путь-3" fill="#83d816" fill-opacity="1" stroke="#000" stroke-linejoin="round" stroke-opacity="1" stroke-width="8" d="M243.75 64 L92 64 4.646 64 4 64 4 92 243.811 92 Z"/><path id="Путь-4" fill="#f97da3" fill-opacity="1" stroke="#000" stroke-linejoin="round" stroke-opacity="1" stroke-width="8" d="M4 4 L92 4 92 92 4 92 Z"/><path id="Путь-5" fill="#83d816" fill-opacity="1" stroke="#000" stroke-linejoin="round" stroke-opacity="1" stroke-width="8" d="M4 152 L4.997 152 92 152 244 152 243.946 124 4 124 Z"/><path id="Путь-6" fill="#fff" fill-opacity="1" stroke="#000" stroke-linejoin="round" stroke-opacity="1" stroke-width="8" d="M55.994 39.6 L73.136 40.282 59.667 50.909 64.316 67.423 50.047 57.898 35.777 67.421 40.427 50.908 26.96 40.279 44.103 39.599 50.049 23.506 Z"/></g></svg>