<svg xmlns="http://www.w3.org/2000/svg" xmlns:xlink="http://www.w3.org/1999/xlink" width="220" height="156" version="1.1" viewBox="0 0 220 156"><g id="group"><path id="Путь" fill="#fff" fill-opacity="1" stroke="#000" stroke-linejoin="round" stroke-opacity="1" stroke-width="7.094" d="M3.548 24.818 L216.452 24.818 216.452 131.182 3.548 131.182 Z"/><path id="Путь-1" fill="#f97da3" fill-opacity="1" stroke="#000" stroke-linejoin="round" stroke-opacity="1" stroke-width="7.094" d="M3.548 3.545 L216.452 3.545 216.452 24.818 3.548 24.818 Z"/><path id="Путь-2" fill="#f97da3" fill-opacity="1" stroke="#000" stroke-linejoin="round" stroke-opacity="1" stroke-width="7.094" d="M3.548 46.091 L216.452 46.091 216.452 67.364 3.548 67.364 Z"/><path id="Путь-3" fill="#f97da3" fill-opacity="1" stroke="#000" stroke-linejoin="round" stroke-opacity="1" stroke-width="7.094" d="M3.548 88.636 L216.452 88.636 216.452 109.909 3.548 109.909 Z"/><path id="Путь-4" fill="#f97da3" fill-opacity="1" stroke="#000" stroke-linejoin="round" stroke-opacity="1" stroke-width="7.094" d="M3.548 131.182 L216.452 131.182 216.452 152.455 3.548 152.455 Z"/><path id="Путь-5" fill="#288eea" fill-opacity="1" stroke="#000" stroke-linejoin="round" stroke-opacity="1" stroke-width="7.094" d="M110 3.545 L3.548 3.545 3.705 88.636 110 88.636 Z"/><path id="Путь-6" fill="none" stroke="#fff" stroke-linejoin="round" stroke-opacity="1" stroke-width="7.545" d="M28.387 24.818 L28.387 39"/><path id="Путь-7" fill="none" stroke="#fff" stroke-linejoin="round" stroke-opacity="1" stroke-width="7.548" d="M21.29 31.909 L35.484 31.909"/><path id="Путь-8" fill="none" stroke="#fff" stroke-linejoin="round" stroke-opacity="1" stroke-width="7.545" d="M56.774 24.818 L56.774 39"/><path id="Путь-9" fill="none" stroke="#fff" stroke-linejoin="round" stroke-opacity="1" stroke-width="7.548" d="M49.677 31.909 L63.871 31.909"/><path id="Путь-10" fill="none" stroke="#fff" stroke-linejoin="round" stroke-opacity="1" stroke-width="7.545" d="M85.161 24.818 L85.161 39"/><path id="Путь-11" fill="none" stroke="#fff" stroke-linejoin="round" stroke-opacity="1" stroke-width="7.548" d="M78.065 31.909 L92.258 31.909"/><path id="Путь-12" fill="none" stroke="#fff" stroke-linejoin="round" stroke-opacity="1" stroke-width="7.545" d="M56.774 53.182 L56.774 67.364"/><path id="Путь-13" fill="none" stroke="#fff" stroke-linejoin="round" stroke-opacity="1" stroke-width="7.548" d="M49.677 60.273 L63.871 60.273"/><path id="Путь-14" fill="none" stroke="#fff" stroke-linejoin="round" stroke-opacity="1" stroke-width="7.545" d="M85.161 53.182 L85.161 67.364"/><path id="Путь-15" fill="none" stroke="#fff" stroke-linejoin="round" stroke-opacity="1" stroke-width="7.548" d="M78.065 60.273 L92.258 60.273"/><path id="Путь-16" fill="none" stroke="#fff" stroke-linejoin="round" stroke-opacity="1" stroke-width="7.545" d="M28.387 53.182 L28.387 67.364"/><path id="Путь-17" fill="none" stroke="#fff" stroke-linejoin="round" stroke-opacity="1" stroke-width="7.548" d="M21.29 60.273 L35.484 60.273"/></g></svg>